<svg xmlns="http://www.w3.org/2000/svg"
     width="2095" height="309" viewBox="0 0 2095 309"
     role="img" aria-label="SENNE logo">
  <title>SENNE Logo</title>
  <path d="M 1384 17 L 1384 18 L 1385 19 L 1386 19 L 1388 21 L 1389 21 L 1394 26 L 1394 27 L 1396 29 L 1396 30 L 1397 31 L 1397 33 L 1398 34 L 1398 42 L 1399 43 L 1399 51 L 1398 52 L 1398 55 L 1399 56 L 1399 85 L 1398 86 L 1398 233 L 1399 234 L 1399 252 L 1398 253 L 1398 266 L 1397 267 L 1397 271 L 1396 272 L 1396 274 L 1395 275 L 1395 277 L 1394 278 L 1394 280 L 1393 281 L 1393 282 L 1385 290 L 1384 290 L 1384 292 L 1419 292 L 1419 291 L 1417 289 L 1416 289 L 1413 286 L 1413 285 L 1411 283 L 1411 282 L 1409 280 L 1409 278 L 1408 277 L 1408 275 L 1407 274 L 1407 270 L 1406 269 L 1406 264 L 1405 263 L 1405 43 L 1406 42 L 1409 45 L 1409 46 L 1414 51 L 1414 52 L 1420 58 L 1420 59 L 1425 64 L 1425 65 L 1429 69 L 1429 70 L 1433 74 L 1433 75 L 1438 80 L 1438 81 L 1442 85 L 1442 86 L 1446 90 L 1446 91 L 1450 95 L 1450 96 L 1454 100 L 1454 101 L 1458 105 L 1458 106 L 1462 110 L 1462 111 L 1466 115 L 1466 116 L 1471 121 L 1471 122 L 1475 126 L 1475 127 L 1479 131 L 1479 132 L 1483 136 L 1483 137 L 1489 143 L 1489 144 L 1493 148 L 1493 149 L 1497 153 L 1497 154 L 1501 158 L 1501 159 L 1505 163 L 1505 164 L 1509 168 L 1509 169 L 1513 173 L 1513 174 L 1517 178 L 1517 179 L 1521 183 L 1521 184 L 1525 188 L 1525 189 L 1529 193 L 1529 194 L 1533 198 L 1533 199 L 1538 204 L 1538 205 L 1542 209 L 1542 210 L 1546 214 L 1546 215 L 1550 219 L 1550 220 L 1554 224 L 1554 225 L 1559 230 L 1559 231 L 1563 235 L 1563 236 L 1567 240 L 1567 241 L 1572 246 L 1572 247 L 1576 251 L 1576 252 L 1581 257 L 1581 258 L 1585 262 L 1585 263 L 1589 267 L 1589 268 L 1594 273 L 1594 274 L 1598 278 L 1598 279 L 1603 284 L 1603 285 L 1610 292 L 1615 292 L 1615 43 L 1616 42 L 1616 38 L 1617 37 L 1617 34 L 1618 33 L 1618 31 L 1619 30 L 1619 29 L 1620 28 L 1620 27 L 1621 26 L 1621 25 L 1627 19 L 1628 19 L 1629 18 L 1629 17 L 1595 17 L 1595 18 L 1602 25 L 1602 26 L 1604 28 L 1604 30 L 1605 31 L 1605 33 L 1606 34 L 1606 36 L 1607 37 L 1607 42 L 1608 43 L 1608 58 L 1609 59 L 1609 220 L 1608 221 L 1608 231 L 1609 232 L 1609 234 L 1608 235 L 1608 244 L 1607 245 L 1603 241 L 1603 240 L 1600 237 L 1600 236 L 1595 231 L 1595 230 L 1591 226 L 1591 225 L 1587 221 L 1587 220 L 1583 216 L 1583 215 L 1579 211 L 1579 210 L 1575 206 L 1575 205 L 1570 200 L 1570 199 L 1566 195 L 1566 194 L 1562 190 L 1562 189 L 1558 185 L 1558 184 L 1554 180 L 1554 179 L 1549 174 L 1549 173 L 1545 169 L 1545 168 L 1541 164 L 1541 163 L 1537 159 L 1537 158 L 1533 154 L 1533 153 L 1530 150 L 1530 149 L 1526 145 L 1526 144 L 1521 139 L 1521 138 L 1517 134 L 1517 133 L 1513 129 L 1513 128 L 1509 124 L 1509 123 L 1504 118 L 1504 117 L 1501 114 L 1501 113 L 1497 109 L 1497 108 L 1493 104 L 1493 103 L 1489 99 L 1489 98 L 1485 94 L 1485 93 L 1481 89 L 1481 88 L 1478 85 L 1478 84 L 1474 80 L 1474 79 L 1470 75 L 1470 74 L 1467 71 L 1467 70 L 1464 67 L 1464 66 L 1460 62 L 1460 61 L 1457 58 L 1457 57 L 1453 53 L 1453 52 L 1449 48 L 1449 47 L 1446 44 L 1446 43 L 1442 39 L 1442 38 L 1439 35 L 1439 34 L 1428 23 L 1427 23 L 1425 21 L 1424 21 L 1423 20 L 1422 20 L 1421 19 L 1420 19 L 1419 18 L 1417 18 L 1416 17 Z M 1877 16 L 1877 18 L 1883 24 L 1883 25 L 1884 26 L 1884 28 L 1885 29 L 1885 32 L 1886 33 L 1886 39 L 1887 40 L 1887 268 L 1886 269 L 1886 275 L 1885 276 L 1885 280 L 1884 281 L 1884 282 L 1883 283 L 1883 284 L 1881 286 L 1881 287 L 1880 288 L 1879 288 L 1876 291 L 1877 292 L 2073 292 L 2073 291 L 2074 290 L 2074 287 L 2075 286 L 2075 284 L 2076 283 L 2076 280 L 2077 279 L 2077 276 L 2078 275 L 2078 273 L 2079 272 L 2079 270 L 2080 269 L 2080 267 L 2081 266 L 2081 262 L 2082 261 L 2081 260 L 2076 265 L 2075 265 L 2073 267 L 2072 267 L 2070 269 L 2069 269 L 2068 270 L 2067 270 L 2066 271 L 2065 271 L 2064 272 L 2063 272 L 2062 273 L 2061 273 L 2060 274 L 2058 274 L 2057 275 L 2056 275 L 2055 276 L 2053 276 L 2052 277 L 2050 277 L 2049 278 L 2047 278 L 2046 279 L 2043 279 L 2042 280 L 2038 280 L 2037 281 L 2033 281 L 2032 282 L 2028 282 L 2027 283 L 2022 283 L 2021 284 L 2014 284 L 2013 285 L 2003 285 L 2002 286 L 1919 286 L 1918 285 L 1918 284 L 1917 283 L 1917 278 L 1916 277 L 1916 149 L 1917 148 L 1921 148 L 1922 147 L 1979 147 L 1980 148 L 1994 148 L 1995 149 L 2000 149 L 2001 150 L 2005 150 L 2006 151 L 2009 151 L 2010 152 L 2013 152 L 2014 153 L 2016 153 L 2017 154 L 2019 154 L 2020 155 L 2022 155 L 2023 156 L 2024 156 L 2025 157 L 2027 157 L 2029 159 L 2030 159 L 2031 160 L 2033 160 L 2033 130 L 2032 130 L 2031 131 L 2029 131 L 2028 132 L 2027 132 L 2026 133 L 2024 133 L 2023 134 L 2020 134 L 2019 135 L 2016 135 L 2015 136 L 2013 136 L 2012 137 L 2008 137 L 2007 138 L 2004 138 L 2003 139 L 1998 139 L 1997 140 L 1991 140 L 1990 141 L 1983 141 L 1982 142 L 1918 142 L 1916 140 L 1916 29 L 1917 28 L 1917 24 L 1918 23 L 1925 23 L 1926 22 L 1994 22 L 1995 23 L 2005 23 L 2006 24 L 2013 24 L 2014 25 L 2019 25 L 2020 26 L 2025 26 L 2026 27 L 2029 27 L 2030 28 L 2033 28 L 2034 29 L 2037 29 L 2038 30 L 2040 30 L 2041 31 L 2042 31 L 2043 32 L 2045 32 L 2046 33 L 2047 33 L 2049 35 L 2050 35 L 2051 36 L 2052 36 L 2053 37 L 2054 37 L 2056 39 L 2057 39 L 2058 40 L 2059 40 L 2060 41 L 2060 37 L 2061 36 L 2061 32 L 2060 31 L 2061 30 L 2061 24 L 2060 23 L 2060 22 L 2061 21 L 2061 17 L 2060 16 Z M 864 17 L 864 18 L 865 19 L 866 19 L 868 21 L 869 21 L 873 25 L 873 26 L 875 28 L 875 29 L 876 30 L 876 31 L 877 32 L 877 34 L 878 35 L 878 39 L 879 40 L 879 263 L 878 264 L 878 269 L 877 270 L 877 273 L 876 274 L 876 276 L 875 277 L 875 279 L 874 280 L 874 281 L 873 282 L 873 283 L 867 289 L 866 289 L 865 290 L 865 292 L 900 292 L 900 290 L 899 290 L 893 284 L 893 283 L 891 281 L 891 280 L 890 279 L 890 278 L 889 277 L 889 275 L 888 274 L 888 271 L 887 270 L 887 266 L 886 265 L 886 256 L 885 255 L 885 42 L 886 41 L 892 47 L 892 48 L 895 51 L 895 52 L 898 55 L 898 56 L 900 58 L 900 59 L 903 62 L 903 63 L 906 66 L 906 67 L 909 70 L 909 71 L 912 74 L 912 75 L 915 78 L 915 79 L 917 81 L 917 82 L 920 85 L 920 86 L 922 88 L 922 89 L 925 92 L 925 93 L 928 96 L 928 97 L 931 100 L 931 101 L 934 104 L 934 105 L 937 108 L 937 109 L 939 111 L 939 112 L 942 115 L 942 116 L 945 119 L 945 120 L 948 123 L 948 124 L 950 126 L 950 127 L 953 130 L 953 131 L 955 133 L 955 134 L 958 137 L 958 138 L 961 141 L 961 142 L 964 145 L 964 146 L 966 148 L 966 149 L 969 152 L 969 153 L 972 156 L 972 157 L 975 160 L 975 161 L 978 164 L 978 165 L 981 168 L 981 169 L 984 172 L 984 173 L 987 176 L 987 177 L 990 180 L 990 181 L 992 183 L 992 184 L 995 187 L 995 188 L 998 191 L 998 192 L 1001 195 L 1001 196 L 1004 199 L 1004 200 L 1006 202 L 1006 203 L 1009 206 L 1009 207 L 1011 209 L 1011 210 L 1014 213 L 1014 214 L 1016 216 L 1016 217 L 1019 220 L 1019 221 L 1022 224 L 1022 225 L 1024 227 L 1024 228 L 1027 231 L 1027 232 L 1029 234 L 1029 235 L 1032 238 L 1032 239 L 1035 242 L 1035 243 L 1039 247 L 1039 248 L 1045 254 L 1045 255 L 1049 259 L 1049 260 L 1060 271 L 1060 272 L 1063 275 L 1064 275 L 1069 280 L 1070 280 L 1073 283 L 1074 283 L 1076 285 L 1077 285 L 1078 286 L 1079 286 L 1080 287 L 1081 287 L 1082 288 L 1083 288 L 1084 289 L 1086 289 L 1087 290 L 1088 290 L 1089 291 L 1092 291 L 1093 292 L 1117 292 L 1118 291 L 1117 290 L 1116 290 L 1115 289 L 1114 289 L 1113 288 L 1112 288 L 1111 287 L 1110 287 L 1105 282 L 1105 281 L 1103 279 L 1103 278 L 1101 276 L 1101 275 L 1100 274 L 1100 273 L 1099 272 L 1099 270 L 1098 269 L 1098 237 L 1097 236 L 1097 46 L 1098 45 L 1098 41 L 1099 40 L 1099 36 L 1100 35 L 1100 33 L 1101 32 L 1101 31 L 1102 30 L 1102 29 L 1103 28 L 1103 27 L 1104 26 L 1104 25 L 1106 23 L 1106 22 L 1107 21 L 1108 21 L 1111 18 L 1111 17 L 1110 16 L 1082 16 L 1081 17 L 1078 17 L 1078 18 L 1084 24 L 1084 25 L 1086 27 L 1086 28 L 1087 29 L 1087 31 L 1088 32 L 1088 34 L 1089 35 L 1089 37 L 1090 38 L 1090 43 L 1091 44 L 1091 261 L 1090 262 L 1074 246 L 1074 245 L 1069 240 L 1069 239 L 1065 235 L 1065 234 L 1062 231 L 1062 230 L 1059 227 L 1059 226 L 1056 223 L 1056 222 L 1054 220 L 1054 219 L 1051 216 L 1051 215 L 1049 213 L 1049 212 L 1046 209 L 1046 208 L 1043 205 L 1043 204 L 1040 201 L 1040 200 L 1038 198 L 1038 197 L 1035 194 L 1035 193 L 1032 190 L 1032 189 L 1029 186 L 1029 185 L 1026 182 L 1026 181 L 1023 178 L 1023 177 L 1020 174 L 1020 173 L 1017 170 L 1017 169 L 1014 166 L 1014 165 L 1011 162 L 1011 161 L 1008 158 L 1008 157 L 1006 155 L 1006 154 L 1003 151 L 1003 150 L 1001 148 L 1001 147 L 998 144 L 998 143 L 995 140 L 995 139 L 992 136 L 992 135 L 990 133 L 990 132 L 987 129 L 987 128 L 985 126 L 985 125 L 982 122 L 982 121 L 979 118 L 979 117 L 976 114 L 976 113 L 974 111 L 974 110 L 971 107 L 971 106 L 969 104 L 969 103 L 966 100 L 966 99 L 964 97 L 964 96 L 962 94 L 962 93 L 959 90 L 959 89 L 957 87 L 957 86 L 954 83 L 954 82 L 952 80 L 952 79 L 949 76 L 949 75 L 947 73 L 947 72 L 944 69 L 944 68 L 941 65 L 941 64 L 939 62 L 939 61 L 936 58 L 936 57 L 933 54 L 933 53 L 931 51 L 931 50 L 928 47 L 928 46 L 925 43 L 925 42 L 922 39 L 922 38 L 918 34 L 918 33 L 911 26 L 910 26 L 907 23 L 906 23 L 904 21 L 903 21 L 902 20 L 901 20 L 900 19 L 898 19 L 897 18 L 895 18 L 894 17 L 888 17 L 887 16 L 872 16 L 871 17 Z M 438 16 L 438 18 L 444 24 L 444 25 L 445 26 L 445 27 L 446 28 L 446 31 L 447 32 L 447 38 L 448 39 L 448 265 L 447 266 L 447 274 L 446 275 L 446 279 L 445 280 L 445 281 L 444 282 L 444 284 L 438 290 L 437 290 L 437 292 L 633 292 L 634 291 L 634 288 L 635 287 L 635 285 L 636 284 L 636 281 L 637 280 L 637 277 L 638 276 L 638 274 L 639 273 L 639 270 L 640 269 L 640 267 L 641 266 L 641 263 L 642 262 L 642 261 L 640 261 L 636 265 L 635 265 L 633 267 L 632 267 L 630 269 L 629 269 L 628 270 L 627 270 L 626 271 L 625 271 L 624 272 L 623 272 L 622 273 L 621 273 L 620 274 L 618 274 L 617 275 L 616 275 L 615 276 L 613 276 L 612 277 L 610 277 L 609 278 L 607 278 L 606 279 L 602 279 L 601 280 L 598 280 L 597 281 L 593 281 L 592 282 L 588 282 L 587 283 L 581 283 L 580 284 L 574 284 L 573 285 L 564 285 L 563 286 L 480 286 L 479 285 L 479 284 L 478 283 L 478 278 L 477 277 L 477 149 L 478 148 L 486 148 L 487 147 L 544 147 L 545 148 L 555 148 L 556 149 L 562 149 L 563 150 L 567 150 L 568 151 L 571 151 L 572 152 L 575 152 L 576 153 L 578 153 L 579 154 L 581 154 L 582 155 L 584 155 L 585 156 L 586 156 L 587 157 L 588 157 L 589 158 L 590 158 L 591 159 L 592 159 L 593 160 L 594 160 L 594 130 L 593 130 L 592 131 L 590 131 L 589 132 L 588 132 L 587 133 L 585 133 L 584 134 L 582 134 L 581 135 L 578 135 L 577 136 L 574 136 L 573 137 L 569 137 L 568 138 L 565 138 L 564 139 L 560 139 L 559 140 L 555 140 L 554 141 L 545 141 L 544 142 L 479 142 L 477 140 L 477 31 L 478 30 L 478 24 L 479 23 L 484 23 L 485 22 L 553 22 L 554 23 L 564 23 L 565 24 L 572 24 L 573 25 L 578 25 L 579 26 L 584 26 L 585 27 L 588 27 L 589 28 L 592 28 L 593 29 L 595 29 L 596 30 L 598 30 L 599 31 L 601 31 L 602 32 L 603 32 L 604 33 L 605 33 L 606 34 L 607 34 L 608 35 L 609 35 L 610 36 L 611 36 L 613 38 L 614 38 L 616 40 L 617 40 L 618 41 L 619 41 L 619 16 Z M 113 12 L 112 13 L 100 13 L 99 14 L 93 14 L 92 15 L 87 15 L 86 16 L 83 16 L 82 17 L 79 17 L 78 18 L 75 18 L 74 19 L 72 19 L 71 20 L 69 20 L 68 21 L 67 21 L 66 22 L 64 22 L 63 23 L 62 23 L 61 24 L 60 24 L 59 25 L 58 25 L 57 26 L 56 26 L 55 27 L 54 27 L 53 28 L 52 28 L 50 30 L 49 30 L 48 31 L 47 31 L 45 33 L 44 33 L 41 36 L 40 36 L 33 43 L 33 44 L 29 48 L 29 49 L 27 51 L 27 52 L 25 54 L 25 55 L 24 56 L 24 57 L 23 58 L 23 60 L 22 61 L 22 62 L 21 63 L 21 65 L 20 66 L 20 69 L 19 70 L 19 74 L 18 75 L 18 89 L 19 90 L 19 95 L 20 96 L 20 99 L 21 100 L 21 102 L 22 103 L 22 104 L 23 105 L 23 107 L 25 109 L 25 110 L 26 111 L 26 112 L 28 114 L 28 115 L 31 118 L 31 119 L 39 127 L 40 127 L 45 132 L 46 132 L 48 134 L 49 134 L 51 136 L 52 136 L 53 137 L 54 137 L 56 139 L 57 139 L 58 140 L 59 140 L 61 142 L 62 142 L 63 143 L 64 143 L 65 144 L 66 144 L 67 145 L 68 145 L 69 146 L 70 146 L 71 147 L 72 147 L 73 148 L 75 148 L 76 149 L 77 149 L 78 150 L 79 150 L 80 151 L 82 151 L 83 152 L 84 152 L 85 153 L 86 153 L 87 154 L 89 154 L 90 155 L 91 155 L 92 156 L 94 156 L 95 157 L 96 157 L 97 158 L 99 158 L 100 159 L 101 159 L 102 160 L 104 160 L 105 161 L 106 161 L 107 162 L 109 162 L 110 163 L 111 163 L 112 164 L 114 164 L 115 165 L 117 165 L 118 166 L 119 166 L 120 167 L 122 167 L 123 168 L 124 168 L 125 169 L 127 169 L 128 170 L 129 170 L 130 171 L 132 171 L 133 172 L 134 172 L 135 173 L 137 173 L 138 174 L 139 174 L 140 175 L 142 175 L 143 176 L 144 176 L 145 177 L 147 177 L 148 178 L 149 178 L 150 179 L 152 179 L 153 180 L 154 180 L 155 181 L 156 181 L 157 182 L 158 182 L 159 183 L 160 183 L 161 184 L 162 184 L 163 185 L 164 185 L 165 186 L 166 186 L 167 187 L 168 187 L 170 189 L 171 189 L 172 190 L 173 190 L 175 192 L 176 192 L 179 195 L 180 195 L 190 205 L 190 206 L 193 209 L 193 210 L 195 212 L 195 213 L 196 214 L 196 215 L 197 216 L 197 217 L 198 218 L 198 219 L 199 220 L 199 222 L 200 223 L 200 226 L 201 227 L 201 232 L 202 233 L 202 244 L 201 245 L 201 248 L 200 249 L 200 251 L 199 252 L 199 254 L 198 255 L 198 256 L 197 257 L 197 258 L 195 260 L 195 261 L 192 264 L 192 265 L 185 272 L 184 272 L 182 274 L 181 274 L 179 276 L 178 276 L 177 277 L 176 277 L 174 279 L 173 279 L 172 280 L 171 280 L 170 281 L 168 281 L 167 282 L 166 282 L 165 283 L 163 283 L 162 284 L 160 284 L 159 285 L 157 285 L 156 286 L 153 286 L 152 287 L 148 287 L 147 288 L 143 288 L 142 289 L 135 289 L 134 290 L 109 290 L 108 289 L 101 289 L 100 288 L 95 288 L 94 287 L 91 287 L 90 286 L 87 286 L 86 285 L 84 285 L 83 284 L 81 284 L 80 283 L 78 283 L 77 282 L 75 282 L 74 281 L 73 281 L 72 280 L 71 280 L 70 279 L 69 279 L 68 278 L 67 278 L 65 276 L 64 276 L 63 275 L 62 275 L 60 273 L 59 273 L 57 271 L 56 271 L 52 267 L 51 267 L 36 252 L 36 251 L 33 248 L 33 247 L 32 246 L 32 245 L 30 243 L 30 242 L 29 241 L 29 240 L 27 238 L 27 237 L 26 236 L 26 235 L 25 234 L 25 233 L 24 232 L 24 231 L 23 230 L 23 229 L 22 228 L 22 227 L 21 226 L 21 225 L 20 224 L 20 223 L 19 222 L 19 220 L 18 219 L 18 218 L 17 217 L 17 215 L 16 214 L 16 212 L 15 211 L 15 210 L 12 210 L 12 236 L 13 237 L 13 244 L 12 245 L 12 261 L 13 261 L 17 265 L 18 265 L 20 267 L 21 267 L 23 269 L 24 269 L 27 272 L 28 272 L 29 273 L 30 273 L 32 275 L 33 275 L 34 276 L 35 276 L 36 277 L 37 277 L 38 278 L 39 278 L 40 279 L 41 279 L 42 280 L 43 280 L 44 281 L 45 281 L 46 282 L 47 282 L 48 283 L 50 283 L 51 284 L 52 284 L 53 285 L 55 285 L 56 286 L 58 286 L 59 287 L 61 287 L 62 288 L 64 288 L 65 289 L 68 289 L 69 290 L 72 290 L 73 291 L 77 291 L 78 292 L 81 292 L 82 293 L 87 293 L 88 294 L 94 294 L 95 295 L 105 295 L 106 296 L 128 296 L 129 295 L 139 295 L 140 294 L 145 294 L 146 293 L 150 293 L 151 292 L 155 292 L 156 291 L 159 291 L 160 290 L 163 290 L 164 289 L 166 289 L 167 288 L 169 288 L 170 287 L 172 287 L 173 286 L 174 286 L 175 285 L 177 285 L 178 284 L 179 284 L 180 283 L 181 283 L 182 282 L 183 282 L 184 281 L 185 281 L 186 280 L 187 280 L 189 278 L 190 278 L 192 276 L 193 276 L 195 274 L 196 274 L 201 269 L 202 269 L 208 263 L 208 262 L 213 257 L 213 256 L 215 254 L 215 253 L 217 251 L 217 250 L 218 249 L 218 248 L 219 247 L 219 246 L 220 245 L 220 244 L 221 243 L 221 241 L 222 240 L 222 238 L 223 237 L 223 234 L 224 233 L 224 229 L 225 228 L 225 212 L 224 211 L 224 207 L 223 206 L 223 203 L 222 202 L 222 200 L 221 199 L 221 198 L 220 197 L 220 195 L 219 194 L 219 193 L 217 191 L 217 190 L 216 189 L 216 188 L 214 186 L 214 185 L 211 182 L 211 181 L 201 171 L 200 171 L 196 167 L 195 167 L 193 165 L 192 165 L 190 163 L 189 163 L 187 161 L 186 161 L 185 160 L 184 160 L 183 159 L 182 159 L 181 158 L 180 158 L 179 157 L 178 157 L 177 156 L 176 156 L 175 155 L 174 155 L 173 154 L 172 154 L 171 153 L 170 153 L 169 152 L 168 152 L 167 151 L 166 151 L 165 150 L 164 150 L 163 149 L 161 149 L 160 148 L 159 148 L 158 147 L 157 147 L 156 146 L 155 146 L 154 145 L 152 145 L 151 144 L 150 144 L 149 143 L 147 143 L 146 142 L 144 142 L 143 141 L 142 141 L 141 140 L 139 140 L 138 139 L 137 139 L 136 138 L 134 138 L 133 137 L 132 137 L 131 136 L 129 136 L 128 135 L 126 135 L 125 134 L 124 134 L 123 133 L 122 133 L 121 132 L 119 132 L 118 131 L 116 131 L 115 130 L 114 130 L 113 129 L 111 129 L 110 128 L 109 128 L 108 127 L 106 127 L 105 126 L 104 126 L 103 125 L 102 125 L 101 124 L 99 124 L 98 123 L 97 123 L 96 122 L 95 122 L 94 121 L 92 121 L 91 120 L 90 120 L 89 119 L 88 119 L 87 118 L 86 118 L 85 117 L 84 117 L 82 115 L 81 115 L 80 114 L 79 114 L 78 113 L 77 113 L 76 112 L 75 112 L 74 111 L 73 111 L 71 109 L 70 109 L 68 107 L 67 107 L 65 105 L 64 105 L 62 103 L 61 103 L 55 97 L 54 97 L 53 96 L 53 95 L 49 91 L 49 90 L 47 88 L 47 87 L 45 85 L 45 83 L 44 82 L 44 81 L 43 80 L 43 77 L 42 76 L 42 70 L 41 69 L 41 66 L 42 65 L 42 57 L 43 56 L 43 54 L 44 53 L 44 51 L 45 50 L 45 49 L 46 48 L 46 47 L 47 46 L 47 45 L 49 43 L 49 42 L 57 34 L 58 34 L 61 31 L 62 31 L 63 30 L 64 30 L 65 29 L 66 29 L 67 28 L 68 28 L 69 27 L 71 27 L 72 26 L 73 26 L 74 25 L 76 25 L 77 24 L 79 24 L 80 23 L 82 23 L 83 22 L 87 22 L 88 21 L 92 21 L 93 20 L 98 20 L 99 19 L 106 19 L 107 18 L 128 18 L 129 19 L 136 19 L 137 20 L 141 20 L 142 21 L 145 21 L 146 22 L 148 22 L 149 23 L 151 23 L 152 24 L 154 24 L 155 25 L 157 25 L 158 26 L 159 26 L 160 27 L 161 27 L 162 28 L 164 28 L 165 29 L 166 29 L 168 31 L 169 31 L 170 32 L 171 32 L 173 34 L 174 34 L 177 37 L 178 37 L 184 43 L 185 43 L 195 53 L 195 54 L 200 59 L 200 60 L 204 64 L 204 65 L 206 67 L 206 68 L 209 71 L 209 72 L 210 72 L 211 71 L 211 66 L 210 65 L 210 63 L 211 62 L 211 36 L 209 34 L 208 34 L 207 33 L 206 33 L 205 32 L 204 32 L 203 31 L 202 31 L 201 30 L 200 30 L 199 29 L 198 29 L 197 28 L 195 28 L 194 27 L 193 27 L 192 26 L 191 26 L 190 25 L 188 25 L 187 24 L 186 24 L 185 23 L 183 23 L 182 22 L 180 22 L 179 21 L 177 21 L 176 20 L 174 20 L 173 19 L 170 19 L 169 18 L 166 18 L 165 17 L 161 17 L 160 16 L 156 16 L 155 15 L 150 15 L 149 14 L 143 14 L 142 13 L 129 13 L 128 12 Z"
        fill="#35261F"
        fill-rule="evenodd"
        clip-rule="evenodd"/>
</svg>
